<svg width="24" height="24" viewBox="0 0 24 24" xmlns="http://www.w3.org/2000/svg">
<path d="M12.0027 5.84671C8.59742 5.84671 5.85074 8.594 5.85074 12C5.85074 15.406 8.59742 18.1533 12.0027 18.1533C15.4079 18.1533 18.1546 15.406 18.1546 12C18.1546 8.594 15.4079 5.84671 12.0027 5.84671ZM12.0027 16.0005C9.8021 16.0005 8.00311 14.2064 8.00311 12C8.00311 9.79361 9.79675 7.99955 12.0027 7.99955C14.2086 7.99955 16.0022 9.79361 16.0022 12C16.0022 14.2064 14.2032 16.0005 12.0027 16.0005ZM19.8411 5.595C19.8411 6.39294 19.1987 7.03024 18.4062 7.03024C17.6085 7.03024 16.9713 6.38759 16.9713 5.595C16.9713 4.80241 17.6137 4.15977 18.4062 4.15977C19.1987 4.15977 19.8411 4.80241 19.8411 5.595ZM23.9156 7.05166C23.8246 5.12909 23.3856 3.42608 21.9774 2.02299C20.5746 0.619881 18.872 0.180743 16.9499 0.0843475C14.9688 -0.0281158 9.03111 -0.0281158 7.05007 0.0843475C5.13329 0.175391 3.43067 0.614529 2.02253 2.01762C0.614388 3.42073 0.180703 5.12373 0.0843278 7.0463C-0.0281093 9.02778 -0.0281093 14.9669 0.0843278 16.9483C0.175349 18.871 0.614388 20.5739 2.02253 21.977C3.43067 23.3801 5.12794 23.8193 7.05007 23.9157C9.03111 24.0281 14.9688 24.0281 16.9499 23.9157C18.872 23.8247 20.5746 23.3855 21.9774 21.977C23.3802 20.5739 23.8192 18.871 23.9156 16.9483C24.0281 14.9669 24.0281 9.03313 23.9156 7.05166ZM21.3563 19.0744C20.9388 20.124 20.1303 20.9327 19.0755 21.3558C17.496 21.9824 13.7482 21.8377 12.0027 21.8377C10.2572 21.8377 6.50395 21.977 4.92983 21.3558C3.88042 20.938 3.07194 20.1294 2.64897 19.0744C2.02253 17.4946 2.16709 13.7458 2.16709 12C2.16709 10.2541 2.02788 6.50006 2.64897 4.92558C3.06658 3.87593 3.87506 3.06728 4.92983 2.6442C6.5093 2.01762 10.2572 2.16222 12.0027 2.16222C13.7482 2.16222 17.5014 2.02299 19.0755 2.6442C20.1249 3.06192 20.9334 3.87058 21.3563 4.92558C21.9828 6.50541 21.8382 10.2541 21.8382 12C21.8382 13.7458 21.9828 17.5 21.3563 19.0744Z"/>
</svg>
