<svg width="16" height="17" viewBox="0 0 16 17" xmlns="http://www.w3.org/2000/svg">
<g clip-path="url(#clip0_290_284)">
<path fill-rule="evenodd" clip-rule="evenodd" d="M9.00633 5.5145H3.73333C3.32083 5.5145 2.98608 5.84925 2.98608 6.26175V12.7528C2.98608 13.1653 3.32083 13.5 3.73333 13.5H10.2393C10.6518 13.5 10.9866 13.1653 10.9866 12.7528V7.5145H11.9863V13.0015C11.9863 13.8285 11.3148 14.5 10.4876 14.5002H3.48508C2.65783 14.5002 1.98633 13.8285 1.98633 13.0015V6.013C1.98633 5.18575 2.65783 4.51425 3.48508 4.51425H9.00633V5.5145Z" />
<path fill-rule="evenodd" clip-rule="evenodd" d="M13.9811 6.83H12.9798V4.20975L6.00634 11.183L5.29834 10.475L12.2721 3.50125H9.65109V2.5H13.9806L13.9811 2.50025V6.83Z" />
</g>
<defs>
<clipPath id="clip0_290_284">
<rect width="16" height="16" fill="white" transform="translate(0 0.5)"/>
</clipPath>
</defs>
</svg>
