<svg width="24" height="24" viewBox="0 0 24 24" xmlns="http://www.w3.org/2000/svg">
<path d="M22.2223 0H1.77167C0.793667 0 0 0.775 0 1.72933V22.2683C0 23.224 0.793667 24 1.77167 24H22.2223C23.201 24 24 23.224 24 22.2683V1.72933C24 0.775 23.201 0 22.2223 0ZM7.118 20.4513H3.55667V8.99833H7.118V20.4513ZM5.33733 7.43233C4.19633 7.43233 3.274 6.50767 3.274 5.36767C3.274 4.22933 4.19633 3.30467 5.33733 3.30467C6.47567 3.30467 7.40033 4.22933 7.40033 5.36767C7.40033 6.50767 6.47567 7.43233 5.33733 7.43233ZM20.45 20.4513H16.8943V14.882C16.8943 13.5533 16.8683 11.845 15.044 11.845C13.1913 11.845 12.909 13.292 12.909 14.7857V20.4517H9.35067V8.99833H12.7657V10.5623H12.8143C13.2897 9.66233 14.451 8.71267 16.183 8.71267C19.785 8.71267 20.4503 11.084 20.4503 14.169L20.45 20.4513Z"/>
</svg>
