<svg width="24" height="24" viewBox="0 0 24 24" fill="none" xmlns="http://www.w3.org/2000/svg">
<path d="M8.02741 19.1417C8.02741 19.2386 7.91611 19.3159 7.77579 19.3159C7.61612 19.3304 7.50482 19.253 7.50482 19.1417C7.50482 19.0449 7.61612 18.9675 7.75644 18.9675C7.90159 18.9531 8.02741 19.0305 8.02741 19.1417ZM6.52257 18.924C6.48869 19.0207 6.58547 19.132 6.73063 19.1611C6.85644 19.2095 7.0016 19.1611 7.03063 19.0643C7.05966 18.9675 6.96773 18.8562 6.82257 18.8127C6.69676 18.7788 6.55644 18.8272 6.52257 18.924ZM8.66127 18.8418C8.52095 18.8756 8.42418 18.9675 8.43869 19.0788C8.45321 19.1756 8.57902 19.2386 8.72417 19.2047C8.8645 19.1708 8.96127 19.0788 8.94676 18.9821C8.93224 18.8901 8.8016 18.8272 8.66127 18.8418ZM11.8451 0.299835C5.13386 0.299835 0 5.39499 0 12.1063C0 17.4724 3.37741 22.0643 8.2016 23.6805C8.82095 23.7917 9.03869 23.4094 9.03869 23.095C9.03869 22.7949 9.02418 21.1401 9.02418 20.124C9.02418 20.124 5.63709 20.8498 4.92579 18.682C4.92579 18.682 4.37418 17.274 3.58064 16.9111C3.58064 16.9111 2.47258 16.1514 3.65806 16.166C3.65806 16.166 4.8629 16.2627 5.52579 17.4143C6.58547 19.2821 8.36127 18.745 9.05321 18.4256C9.1645 17.6514 9.47901 17.1143 9.8274 16.7949C7.12257 16.495 4.39354 16.103 4.39354 11.4482C4.39354 10.1176 4.76128 9.44981 5.53547 8.59821C5.40966 8.2837 4.99838 6.98692 5.66128 5.31273C6.67257 4.99822 8.99998 6.61918 8.99998 6.61918C9.96773 6.34821 11.008 6.20789 12.0386 6.20789C13.0694 6.20789 14.1097 6.34821 15.0773 6.61918C15.0773 6.61918 17.4048 4.99337 18.4161 5.31273C19.079 6.99175 18.6677 8.2837 18.5419 8.59821C19.3161 9.45466 19.7903 10.1224 19.7903 11.4482C19.7903 16.1175 16.9403 16.4901 14.2354 16.7949C14.6807 17.1772 15.058 17.903 15.058 19.0402C15.058 20.6708 15.0436 22.6885 15.0436 23.0853C15.0436 23.3998 15.2661 23.782 15.8806 23.6707C20.7193 22.0643 24 17.4724 24 12.1063C24 5.39499 18.5564 0.299835 11.8451 0.299835ZM4.70321 16.9885C4.64032 17.0369 4.65483 17.1482 4.73708 17.2402C4.81451 17.3176 4.92579 17.3515 4.9887 17.2885C5.05161 17.2402 5.03709 17.1288 4.95483 17.0369C4.87741 16.9594 4.76612 16.9256 4.70321 16.9885ZM4.18064 16.5965C4.14677 16.6595 4.19515 16.7369 4.29192 16.7853C4.36935 16.8337 4.46612 16.8191 4.5 16.7514C4.53387 16.6885 4.48548 16.6111 4.3887 16.5627C4.29192 16.5337 4.21451 16.5482 4.18064 16.5965ZM5.74837 18.3191C5.67096 18.3821 5.69999 18.5272 5.81128 18.6192C5.92257 18.7305 6.06289 18.745 6.12579 18.6676C6.1887 18.6046 6.15966 18.4595 6.06289 18.3675C5.95644 18.2562 5.81128 18.2417 5.74837 18.3191ZM5.19676 17.6078C5.11935 17.6563 5.11935 17.782 5.19676 17.8933C5.27419 18.0046 5.40483 18.0531 5.46773 18.0046C5.54515 17.9418 5.54515 17.8159 5.46773 17.7046C5.39999 17.5934 5.27419 17.545 5.19676 17.6078Z" fill="#3A3A3A"/>
</svg>
