<svg width="24" height="24" viewBox="0 0 24 24" fill="none" xmlns="http://www.w3.org/2000/svg">
<path d="M5.71429 0C2.56495 0 0 2.56495 0 5.71429V18.2857C0 21.435 2.56495 24 5.71429 24H18.2857C21.435 24 24 21.435 24 18.2857V5.71429C24 2.56495 21.435 0 18.2857 0H5.71429ZM8.00335 4.59598C8.36221 4.61141 8.69177 4.8136 8.89063 5.12388C9.11691 5.47703 9.46808 6.0251 9.92522 6.73996C10.3424 7.39196 10.3715 8.23406 9.99888 8.91406L9.16183 10.1049C8.93555 10.4272 8.89041 10.8397 9.04241 11.2031C9.27898 11.7688 9.7376 12.6383 10.5525 13.4531C11.3673 14.268 12.2367 14.7266 12.8025 14.9632C13.1659 15.1152 13.5784 15.07 13.9007 14.8438L15.0915 14.0067C15.7715 13.6341 16.6136 13.6638 17.2656 14.0804C17.9805 14.5375 18.5286 14.8887 18.8817 15.115C19.192 15.3138 19.3942 15.6434 19.4096 16.0022C19.4976 18.0388 17.9198 18.8638 17.4609 18.8638C17.1432 18.8638 13.3236 19.298 9.01563 14.99C4.70763 10.682 5.14174 6.86236 5.14174 6.54464C5.14174 6.08579 5.96678 4.50798 8.00335 4.59598Z" fill="#3A3A3A"/>
</svg>
